<svg xmlns="http://www.w3.org/2000/svg" viewBox="0 0 64 64">
  <path fill="#2071BD" fill-rule="evenodd" d="M32,4 C47.463973,4 60,16.536027 60,32 C60,47.463973 47.463973,60 32,60 C16.536027,60 4,47.463973 4,32 C4,16.536027 16.536027,4 32,4 Z M15.4436508,30.4142136 C17.005748,28.8521164 19.5384079,28.8521164 21.1005051,30.4142136 L26.7573593,36.0710678 L40.8994949,21.9289322 C42.4615921,20.366835 44.994252,20.366835 46.5563492,21.9289322 C48.1184464,23.4910294 48.1184464,26.0236893 46.5563492,27.5857864 L29.5857864,44.5563492 C28.0236893,46.1184464 25.4910294,46.1184464 23.9289322,44.5563492 L15.4436508,36.0710678 C13.8815536,34.5089706 13.8815536,31.9763107 15.4436508,30.4142136 Z"/>
</svg>
