<svg xmlns="http://www.w3.org/2000/svg" viewBox="0 0 64 64">
  <path fill="#2071BD" fill-rule="evenodd" d="M8,0 L56,0 C60.418278,0 64,3.581722 64,8 L64,56 C64,60.418278 60.418278,64 56,64 L8,64 C3.581722,64 0,60.418278 0,56 L0,8 C0,3.581722 3.581722,0 8,0 Z M54.4566469,16.2253778 C56.0187441,17.787475 56.0978897,20.2409893 54.6334236,21.7054553 L28.1169193,48.2219596 C27.2079404,49.1309386 25.917925,49.4452324 24.696538,49.1793464 L24.5005972,49.136612 C23.8510763,48.9780108 23.2399597,48.6483009 22.737857,48.1461982 L9.10079767,34.5091388 C7.59448969,33.0028309 7.63971576,30.515397 9.20181293,28.9532999 C10.7639101,27.3912027 13.2513439,27.3459766 14.7576519,28.8522846 L25.465,39.56 L48.9765694,16.0486011 C50.4410355,14.584135 52.8945498,14.6632806 54.4566469,16.2253778 Z"/>
</svg>
