<svg xmlns="http://www.w3.org/2000/svg" viewBox="0 0 64 64">
  <path fill="#2071BD" fill-rule="evenodd" d="M54.8199557,9.18146817 C56.3933481,10.7567591 56.3933481,13.3108102 54.8199557,14.8861011 L37.7266814,32 L54.8199557,49.1138989 C56.3933481,50.6891898 56.3933481,53.2432409 54.8199557,54.8185318 C53.2465632,56.3938227 50.69559,56.3938227 49.1221976,54.8185318 L29.1800443,34.8523165 C27.6066519,33.2770256 27.6066519,30.7229744 29.1800443,29.1476835 L49.1221976,9.18146817 C50.69559,7.60617728 53.2465632,7.60617728 54.8199557,9.18146817 Z M34.8199557,9.18146817 C36.3933481,10.7567591 36.3933481,13.3108102 34.8199557,14.8861011 L17.7266814,32 L34.8199557,49.1138989 C36.3933481,50.6891898 36.3933481,53.2432409 34.8199557,54.8185318 C33.2465632,56.3938227 30.69559,56.3938227 29.1221976,54.8185318 L9.18004433,34.8523165 C7.60665189,33.2770256 7.60665189,30.7229744 9.18004433,29.1476835 L29.1221976,9.18146817 C30.69559,7.60617728 33.2465632,7.60617728 34.8199557,9.18146817 Z"/>
</svg>
