<svg xmlns="http://www.w3.org/2000/svg" viewBox="0 0 64 64">
  <path fill="#2071BD" fill-rule="evenodd" d="M29.1800443,9.18146817 C30.7534368,7.60617728 33.30441,7.60617728 34.8778024,9.18146817 L34.8778024,9.18146817 L54.8199557,29.1476835 C56.3933481,30.7229744 56.3933481,33.2770256 54.8199557,34.8523165 L54.8199557,34.8523165 L34.8778024,54.8185318 C33.30441,56.3938227 30.7534368,56.3938227 29.1800443,54.8185318 C27.6066519,53.2432409 27.6066519,50.6891898 29.1800443,49.1138989 L29.1800443,49.1138989 L46.2733186,32 L29.1800443,14.8861011 C27.6066519,13.3108102 27.6066519,10.7567591 29.1800443,9.18146817 Z M9.18004433,9.18146817 C10.7534368,7.60617728 13.30441,7.60617728 14.8778024,9.18146817 L14.8778024,9.18146817 L34.8199557,29.1476835 C36.3933481,30.7229744 36.3933481,33.2770256 34.8199557,34.8523165 L34.8199557,34.8523165 L14.8778024,54.8185318 C13.30441,56.3938227 10.7534368,56.3938227 9.18004433,54.8185318 C7.60665189,53.2432409 7.60665189,50.6891898 9.18004433,49.1138989 L9.18004433,49.1138989 L26.2733186,32 L9.18004433,14.8861011 C7.60665189,13.3108102 7.60665189,10.7567591 9.18004433,9.18146817 Z"/>
</svg>
